<svg xmlns="http://www.w3.org/2000/svg" width="167" height="33"><path d="M56.456 29.167q0 .916 1.121.916V31h-7.846v-.916a.979.979 0 00.637-.229.836.836 0 00.28-.687V8.905h-8.406a1.738 1.738 0 00-.892.255 1.026 1.026 0 00-.433.967H40V3h.917a1.026 1.026 0 00.433.967 1.738 1.738 0 00.892.255h22.62a1.738 1.738 0 00.892-.255A1.026 1.026 0 0066.187 3h.917v7.127h-.921a1.026 1.026 0 00-.433-.967 1.738 1.738 0 00-.892-.255h-8.406zm31.964-8.552l-4.28-9.465-4.789 9.469zm-19.207 9.469a1.491 1.491 0 001.044-.662 10.965 10.965 0 00.739-1.272l9.425-19.8q.357-.662.637-1.222a2.238 2.238 0 00.28-.967.751.751 0 00-.357-.713 3 3 0 00-.764-.305v-.916h8.61v.916a4.138 4.138 0 00-.713.28.743.743 0 00-.357.738 2.017 2.017 0 00.178.815q.178.407.535 1.069l10.6 20.72a1.742 1.742 0 00.688.815 10.706 10.706 0 00.993.509V31h-8.968v-.916a1.2 1.2 0 00.509-.153.489.489 0 00.306-.458 3.169 3.169 0 00-.408-1.323l-1.936-3.768H77.823l-1.834 3.615a4.273 4.273 0 00-.506 1.527q0 .56.968.56V31h-7.238zm52.088-13.949a14 14 0 003.057-.28 5.409 5.409 0 001.936-.789 2.948 2.948 0 001.019-1.2 3.654 3.654 0 00.306-1.5 3.654 3.654 0 00-.306-1.5 2.948 2.948 0 00-1.019-1.2 5.409 5.409 0 00-1.936-.789 14 14 0 00-3.057-.28h-8.818v7.535zm1.325-11.913a20.882 20.882 0 014.432.433 10 10 0 013.413 1.375 6.32 6.32 0 012.191 2.444 8.076 8.076 0 01.764 3.691 6.548 6.548 0 01-1.987 5.142 10.69 10.69 0 01-5.349 2.393l6.776 9.673a1.381 1.381 0 00.841.611 4.355 4.355 0 00.892.1V31h-9.528v-.916a1.873 1.873 0 00.79-.153q.331-.153.331-.407a1.155 1.155 0 00-.2-.585q-.2-.331-.611-.891l-5.6-7.942h-7.298v9.062a.78.78 0 00.331.687 2.237 2.237 0 001.2.229V31h-8.813v-.916q1.477 0 1.477-.916V6.05q0-.916-1.477-.916v-.916zm33.726 24.945q0 .916 1.121.916V31h-7.846v-.916a.979.979 0 00.637-.229.836.836 0 00.28-.687V8.905h-8.406a1.738 1.738 0 00-.892.255 1.026 1.026 0 00-.433.967h-.917V3h.917a1.026 1.026 0 00.433.967 1.738 1.738 0 00.892.255h22.62a1.738 1.738 0 00.892-.255 1.026 1.026 0 00.433-.967H167v7.127h-.917a1.026 1.026 0 00-.433-.967 1.738 1.738 0 00-.892-.255h-8.406z" fill="#212121"/><path d="M3.451 22.637l.627.308a1.928 1.928 0 00.251.987 4.453 4.453 0 001.725 1.45 17.744 17.744 0 002.949 1.264 26.069 26.069 0 003.482.894 17.988 17.988 0 003.262.339q1.067 0 2.76-.154a16.675 16.675 0 003.325-.648 9.418 9.418 0 002.823-1.357 2.687 2.687 0 001.192-2.282 2.292 2.292 0 00-1.1-2.1 8.121 8.121 0 00-2.886-.987 31.729 31.729 0 00-4.078-.4q-2.29-.093-4.674-.278a43.286 43.286 0 01-4.674-.617 13.08 13.08 0 01-4.078-1.45 8.049 8.049 0 01-2.886-2.776 8.571 8.571 0 01-1.1-4.6 8.446 8.446 0 01.91-3.763 9.177 9.177 0 012.792-3.269A15.486 15.486 0 018.841.885a22.974 22.974 0 016.776-.894 29.538 29.538 0 015.772.493 43.417 43.417 0 014.235 1.049q1.788.555 3.011 1.049a5.7 5.7 0 002.039.493 1.751 1.751 0 001.255-.37l.753.493-4.325 7.718-.627-.247a3.363 3.363 0 00-.5-1.419 5.329 5.329 0 00-1.663-1.45 14.53 14.53 0 00-2.729-1.264 22.521 22.521 0 00-3.388-.894 19.812 19.812 0 00-3.639-.339 19.7 19.7 0 00-2.856.213 13.63 13.63 0 00-2.666.648 5.9 5.9 0 00-1.976 1.141 2.275 2.275 0 00-.784 1.758 2.5 2.5 0 001.1 2.221 8.079 8.079 0 002.886 1.11 27.588 27.588 0 004.075.498q2.29.123 4.674.308a38.709 38.709 0 014.674.648 13.65 13.65 0 014.078 1.48 8.138 8.138 0 012.886 2.745 8.279 8.279 0 011.1 4.5 7.828 7.828 0 01-1.727 5.243 12.143 12.143 0 01-4.3 3.207 19.623 19.623 0 01-5.55 1.576 41.8 41.8 0 01-5.552.4 37.48 37.48 0 01-5.991-.4 22.694 22.694 0 01-4.016-.983 27.148 27.148 0 01-2.541-1.052 3.82 3.82 0 00-1.635-.463 1.046 1.046 0 00-.816.493L0 30.101z" fill="#dd1b57"/></svg>